# xmcd
#
# Track frame offsets:
#	150
#	15310
#	33632
#	45428
#	60474
#	72830
#	87735
#	102675
#	117948
#	132404
#	150939
#	164700
#	184152
#	203916
#	220118
#
# Disc length: 3167 seconds
#
# Revision: 1
# Processed by: cddbd v1.5.2PL0 Copyright (c) Steve Scherf et al.
# Submitted via: audiograbber 1.83.01
#
DISCID=d30c5d0f
DTITLE=Collin Raye - CB90009 Chartbuster Artist Series (CB)
DYEAR=1900
DGENRE=Country
TTITLE0=All I Can Be Is A Sweet Memory (CB)
TTITLE1=Love Me (CB)
TTITLE2=Every Second (CB)
TTITLE3=In This Life (CB)
TTITLE4=I Want You Bad (And That Ain't Good) (CB)
TTITLE5=Let It Be Me (CB)
TTITLE6=Somebody Else's Moon (CB)
TTITLE7=That Was A River (CB)
TTITLE8=That's My Story (CB)
TTITLE9=Little Rock (CB)
TTITLE10=My Kind Of Girl (CB)
TTITLE11=One Boy, One Girl (CB)
TTITLE12=Not That Different (CB)
TTITLE13=I Think About You (CB)
TTITLE14=Love Remains (CB)
EXTD=
EXTT0=
EXTT1=
EXTT2=
EXTT3=
EXTT4=
EXTT5=
EXTT6=
EXTT7=
EXTT8=
EXTT9=
EXTT10=
EXTT11=
EXTT12=
EXTT13=
EXTT14=
PLAYORDER=
